<svg width="34" height="33" viewBox="0 0 34 33" fill="none" xmlns="http://www.w3.org/2000/svg">
<path opacity="0.1" fill-rule="evenodd" clip-rule="evenodd" d="M0.924042 16.7604C0.924042 7.79796 8.18953 0.532471 17.152 0.532471C26.1144 0.532471 33.3799 7.79796 33.3799 16.7604C33.3799 25.7228 26.1144 32.9883 17.152 32.9883C8.18953 32.9883 0.924042 25.7228 0.924042 16.7604Z" fill="white"/>
<path d="M23.4688 21.4514L24.1883 16.7605H19.6876V13.7177C19.6876 12.4341 20.3151 11.1821 22.3309 11.1821H24.3784V7.18853C24.3784 7.18853 22.5211 6.87158 20.7462 6.87158C17.0379 6.87158 14.6163 9.11877 14.6163 13.1853V16.7605H10.496V21.4514H14.6163V32.7919C15.4436 32.9218 16.2898 32.9884 17.152 32.9884C18.0141 32.9884 18.8603 32.9218 19.6876 32.7919V21.4514H23.4688Z" fill="white"/>
</svg>
