<svg width="306" height="306" viewBox="0 0 306 306" fill="none" xmlns="http://www.w3.org/2000/svg">
<circle cx="153" cy="153" r="133.5" fill="#830600" stroke="white" stroke-width="39"/>
<path d="M186.256 144.547H176.024H186.256ZM176.024 144.547H165.791H176.024ZM176.024 144.547V134.315V144.547ZM176.024 144.547V154.78V144.547Z" fill="white"/>
<path d="M186.256 144.547H176.024M176.024 144.547H165.791M176.024 144.547V134.315M176.024 144.547V154.78" stroke="white" stroke-width="7.67442" stroke-linecap="round"/>
<path d="M153 127.019L150.196 129.639C150.555 130.023 150.989 130.329 151.472 130.539C151.954 130.748 152.474 130.856 153 130.856C153.526 130.856 154.046 130.748 154.528 130.539C155.011 130.329 155.445 130.023 155.804 129.639L153 127.019ZM105.173 168.502C105.426 168.948 105.766 169.339 106.173 169.651C106.58 169.964 107.045 170.191 107.541 170.321C108.037 170.45 108.555 170.479 109.062 170.405C109.57 170.332 110.057 170.157 110.496 169.891C110.935 169.626 111.316 169.275 111.617 168.86C111.918 168.445 112.133 167.973 112.249 167.474C112.364 166.974 112.379 166.456 112.291 165.951C112.203 165.446 112.015 164.963 111.737 164.532L105.173 168.502ZM125.05 181.236C124.703 180.856 124.283 180.55 123.816 180.335C123.348 180.12 122.842 180.002 122.328 179.987C121.814 179.972 121.302 180.06 120.822 180.247C120.343 180.433 119.906 180.714 119.537 181.073C119.169 181.432 118.876 181.862 118.677 182.336C118.478 182.81 118.376 183.32 118.378 183.834C118.379 184.349 118.484 184.858 118.686 185.331C118.889 185.804 119.184 186.231 119.555 186.588L125.05 181.236ZM105.674 146.175C105.674 131.312 112.162 122.128 120.184 118.982C128.191 115.845 139.391 118.086 150.196 129.639L155.804 124.4C143.586 111.333 129.204 107.209 117.386 111.834C105.582 116.459 98 129.158 98 146.175H105.674ZM170.958 200.622C178.597 194.426 187.745 186.122 195.02 176.847C202.219 167.668 208 157.001 208 146.164H200.326C200.326 154.412 195.823 163.375 188.978 172.109C182.204 180.75 173.547 188.645 166.128 194.662L170.958 200.622ZM208 146.164C208 129.153 200.418 116.454 188.609 111.834C176.791 107.204 162.414 111.322 150.196 124.395L155.804 129.639C166.609 118.086 177.809 115.84 185.816 118.976C193.838 122.118 200.326 131.307 200.326 146.164H208ZM135.042 200.627C141.54 205.907 146.052 209.78 153 209.78V202.106C149.301 202.106 146.999 200.448 139.872 194.667L135.042 200.627ZM166.128 194.662C159.001 200.443 156.699 202.106 153 202.106V209.78C159.948 209.78 164.466 205.907 170.963 200.627L166.128 194.662ZM111.742 164.532C107.91 158.208 105.674 151.992 105.674 146.175H98C98 153.91 100.947 161.523 105.173 168.502L111.742 164.532ZM139.872 194.667C134.677 190.479 129.728 185.995 125.05 181.236L119.555 186.588C124.441 191.562 129.615 196.25 135.042 200.627L139.872 194.667Z" fill="white"/>
</svg>
