<svg width="306" height="306" viewBox="0 0 306 306" fill="none" xmlns="http://www.w3.org/2000/svg">
<circle cx="153" cy="153" r="133.5" fill="#830600" stroke="#F5F5F5" stroke-width="39"/>
<path d="M154.652 143.572C154.652 151.833 149.696 163.398 149.696 163.398M151.348 146.877C151.348 146.877 156.304 133.659 144.739 123.746C133.174 113.833 115 117.137 115 117.137C115 117.137 115 130.355 124.913 140.268C134.826 150.181 151.348 146.877 151.348 146.877ZM154.652 140.268C154.652 140.268 149.696 127.05 161.261 117.137C172.826 107.224 191 110.529 191 110.529C191 110.529 191 123.746 181.087 133.659C171.174 143.572 154.652 140.268 154.652 140.268ZM128.217 163.398H171.174C171.174 163.398 174.478 193.137 149.696 193.137C124.913 193.137 128.217 163.398 128.217 163.398Z" stroke="white" stroke-width="9.91304" stroke-linecap="round" stroke-linejoin="round"/>
</svg>
