<svg width="13" height="18" viewBox="0 0 13 18" fill="none" xmlns="http://www.w3.org/2000/svg">
<path d="M6.32067 8.45698C5.7627 8.45698 5.22758 8.23532 4.83303 7.84078C4.43849 7.44623 4.21684 6.91111 4.21684 6.35314C4.21684 5.79517 4.43849 5.26005 4.83303 4.86551C5.22758 4.47096 5.7627 4.24931 6.32067 4.24931C6.87864 4.24931 7.41376 4.47096 7.80831 4.86551C8.20285 5.26005 8.42451 5.79517 8.42451 6.35314C8.42451 6.62942 8.37009 6.903 8.26436 7.15824C8.15863 7.41349 8.00367 7.64542 7.80831 7.84078C7.61295 8.03614 7.38102 8.1911 7.12577 8.29683C6.87052 8.40256 6.59695 8.45698 6.32067 8.45698ZM6.32067 0.462402C4.75835 0.462402 3.26002 1.08303 2.15529 2.18776C1.05056 3.29249 0.429932 4.79082 0.429932 6.35314C0.429932 10.7712 6.32067 17.2931 6.32067 17.2931C6.32067 17.2931 12.2114 10.7712 12.2114 6.35314C12.2114 4.79082 11.5908 3.29249 10.4861 2.18776C9.38132 1.08303 7.88299 0.462402 6.32067 0.462402Z" fill="white"/>
</svg>
