<svg width="89" height="61" viewBox="0 0 89 61" fill="none" xmlns="http://www.w3.org/2000/svg">
<path d="M47.668 33.3988L33.9891 56.6309L20.3104 33.3988H47.668ZM51.3325 31.3224H16.6311L33.9891 60.7402L51.3325 31.3224Z" fill="#C21616"/>
<path d="M71.4502 4.50345L85.1289 27.7356H57.7713L71.4502 4.50345ZM71.4502 0.350708L54.092 29.7684H88.8082L71.4502 0.350708Z" fill="#C21616"/>
<path d="M0 0.350708L14.5542 26.3707L30.4583 1.00408L0 0.350708Z" fill="#C21616"/>
<path d="M33.9895 2.63013L49.2558 28.5049H18.6936L33.9895 2.63013Z" fill="#B24949"/>
<path d="M53.1873 34.1541L68.4684 60.7405H37.1792L52.7125 34.1541H53.1873Z" fill="#D12B2B"/>
<path d="M56.4955 32.5422L71.4502 58.7219L86.6126 32.5422H56.4955Z" fill="#DA8686"/>
</svg>
