<svg width="76" height="52" viewBox="0 0 76 52" fill="none" xmlns="http://www.w3.org/2000/svg">
<path d="M41.0383 28.0845L29.527 47.6352L18.0159 28.0845H41.0383ZM44.122 26.3372H14.9196L29.527 51.0932L44.122 26.3372Z" fill="white"/>
<path d="M61.0518 3.76787L72.5629 23.3185H49.5406L61.0518 3.76787ZM61.0518 0.273193L46.4443 25.0292H75.6592L61.0518 0.273193Z" fill="white"/>
<path d="M0.924042 0.273193L13.1719 22.1699L26.5557 0.823025L0.924042 0.273193Z" fill="white"/>
<path d="M29.5273 2.19165L42.3744 23.9662H16.6553L29.5273 2.19165Z" fill="#B24949"/>
<path d="M45.683 28.7197L58.5425 51.0931H32.2116L45.2834 28.7197H45.683Z" fill="#B00A0A"/>
<path d="M48.467 27.3633L61.0518 49.3944L73.8115 27.3633H48.467Z" fill="#DA8686"/>
</svg>
