<svg width="16" height="17" viewBox="0 0 16 17" fill="none" xmlns="http://www.w3.org/2000/svg">
<path d="M14.6939 16.0475C12.9407 16.0475 11.2086 15.6655 9.49746 14.9013C7.78634 14.1372 6.2295 13.0536 4.82695 11.6505C3.42439 10.2479 2.34106 8.69111 1.57694 6.97999C0.81283 5.26887 0.430493 3.53671 0.429932 1.78351C0.429932 1.53105 0.514085 1.32067 0.682392 1.15236C0.850699 0.984056 1.06108 0.899902 1.31354 0.899902H4.72176C4.91811 0.899902 5.09343 0.966664 5.24771 1.10019C5.402 1.23371 5.49316 1.39136 5.52121 1.57313L6.06821 4.5185C6.09626 4.74291 6.08925 4.93225 6.04717 5.08653C6.0051 5.24082 5.92795 5.37406 5.81575 5.48626L3.77503 7.54802C4.05554 8.06697 4.38851 8.56824 4.77393 9.05184C5.15935 9.53545 5.58377 10.0019 6.04717 10.4513C6.48196 10.8861 6.9378 11.2895 7.41466 11.6614C7.89153 12.0334 8.39645 12.3734 8.92943 12.6814L10.907 10.7038C11.0333 10.5775 11.1982 10.483 11.4019 10.4202C11.6055 10.3573 11.8052 10.3397 12.001 10.3672L14.9043 10.9562C15.1007 11.0123 15.262 11.1142 15.3882 11.2617C15.5144 11.4093 15.5775 11.5739 15.5775 11.7557V15.1639C15.5775 15.4164 15.4934 15.6267 15.3251 15.7951C15.1568 15.9634 14.9464 16.0475 14.6939 16.0475Z" fill="white"/>
</svg>
