<svg width="306" height="306" viewBox="0 0 306 306" fill="none" xmlns="http://www.w3.org/2000/svg">
<circle cx="153" cy="153" r="133.5" fill="#830600" stroke="#F5F5F5" stroke-width="39"/>
<path d="M153.4 210.5C140.253 207.19 129.399 199.646 120.837 187.868C112.275 176.091 107.996 163.015 108 148.643V114.025L153.4 97L198.8 114.025V148.643C198.8 163.019 194.521 176.096 185.963 187.874C177.405 199.651 166.551 207.193 153.4 210.5ZM153.4 198.582C162.575 195.745 170.236 190.14 176.384 181.767C182.532 173.395 186.126 164.056 187.166 153.75H153.4V109.059L119.35 121.828V151.196C119.35 151.858 119.445 152.71 119.634 153.75H153.4V198.582Z" fill="white"/>
</svg>
