<svg width="37" height="35" viewBox="0 0 37 35" fill="none" xmlns="http://www.w3.org/2000/svg">
<path d="M8.70527 34.5759H2.83733C1.76154 34.5759 0.881348 33.6957 0.881348 32.6199V10.4977C0.881348 9.67622 1.37034 8.95251 2.13318 8.65911L23.649 0.385314C23.9464 0.27054 24.2673 0.230201 24.5839 0.267808C24.9005 0.305416 25.2031 0.419829 25.4653 0.601088C25.7275 0.782348 25.9415 1.02496 26.0886 1.3078C26.2356 1.59065 26.3113 1.90515 26.3091 2.22394V13.0601H10.6613C9.58546 13.0601 8.70527 13.9403 8.70527 15.0161V34.5759ZM28.2651 16.972H14.5732C13.4974 16.972 12.6172 17.8522 12.6172 18.928V32.6199C12.6172 33.6957 13.4974 34.5759 14.5732 34.5759H22.3971V26.7519C22.3971 25.6761 23.2773 24.796 24.3531 24.796C25.4289 24.796 26.3091 25.6761 26.3091 26.7519V34.5759H34.133C35.2088 34.5759 36.089 33.6957 36.089 32.6199V16.972C36.089 14.8205 34.3286 13.0601 32.177 13.0601C30.0255 13.0601 28.2651 14.8205 28.2651 16.972Z" fill="#888B97"/>
</svg>
