<svg width="33" height="33" viewBox="0 0 33 33" fill="none" xmlns="http://www.w3.org/2000/svg">
<path opacity="0.1" fill-rule="evenodd" clip-rule="evenodd" d="M0.291534 16.7604C0.291534 7.79796 7.55702 0.532471 16.5195 0.532471C25.4819 0.532471 32.7474 7.79796 32.7474 16.7604C32.7474 25.7228 25.4819 32.9883 16.5195 32.9883C7.55702 32.9883 0.291534 25.7228 0.291534 16.7604Z" fill="white"/>
<path fill-rule="evenodd" clip-rule="evenodd" d="M16.0334 13.7228L16.0675 14.2843L15.4999 14.2156C13.434 13.952 11.6292 13.0581 10.0968 11.5569L9.34763 10.812L9.15466 11.3621C8.74602 12.5883 9.00709 13.8832 9.85843 14.7542C10.3125 15.2355 10.2103 15.3042 9.42709 15.0177C9.15466 14.9261 8.91629 14.8573 8.89358 14.8917C8.81413 14.9719 9.08655 16.0147 9.30222 16.4273C9.59735 17.0002 10.199 17.5618 10.8573 17.8941L11.4135 18.1577L10.7552 18.1691C10.1195 18.1691 10.0968 18.1806 10.1649 18.4212C10.3919 19.1661 11.2887 19.9568 12.2876 20.3006L12.9913 20.5413L12.3784 20.908C11.4703 21.4351 10.4033 21.7331 9.33628 21.756C8.82548 21.7675 8.40549 21.8133 8.40549 21.8477C8.40549 21.9623 9.79032 22.604 10.5962 22.8561C13.014 23.601 15.8859 23.2801 18.0426 22.0081C19.575 21.1028 21.1074 19.3036 21.8225 17.5618C22.2084 16.6335 22.5944 14.9375 22.5944 14.1239C22.5944 13.5967 22.6284 13.528 23.2641 12.8977C23.6387 12.531 23.9905 12.1299 24.0586 12.0153C24.1722 11.7976 24.1608 11.7976 23.5819 11.9924C22.6171 12.3362 22.4808 12.2903 22.9576 11.7747C23.3095 11.4079 23.7295 10.7433 23.7295 10.5485C23.7295 10.5141 23.5592 10.5714 23.3662 10.6745C23.1619 10.7891 22.7079 10.961 22.3673 11.0642L21.7544 11.259L21.1982 10.8808C20.8917 10.6745 20.4603 10.4453 20.2333 10.3766C19.6544 10.2161 18.769 10.2391 18.2469 10.4224C16.828 10.9381 15.9313 12.2674 16.0334 13.7228Z" fill="white"/>
</svg>
