<svg width="21" height="21" viewBox="0 0 21 21" fill="none" xmlns="http://www.w3.org/2000/svg">
<path d="M19.3667 21L12.0167 13.65C11.4333 14.1167 10.7625 14.4861 10.0042 14.7583C9.24583 15.0306 8.43889 15.1667 7.58333 15.1667C5.46389 15.1667 3.67033 14.4324 2.20267 12.964C0.735 11.4956 0.000777778 9.702 0 7.58333C0 5.46389 0.734222 3.67033 2.20267 2.20267C3.67111 0.735 5.46467 0.000777778 7.58333 0C9.70278 0 11.4967 0.734222 12.9652 2.20267C14.4336 3.67111 15.1674 5.46467 15.1667 7.58333C15.1667 8.43889 15.0306 9.24583 14.7583 10.0042C14.4861 10.7625 14.1167 11.4333 13.65 12.0167L21 19.3667L19.3667 21ZM7.58333 12.8333C9.04167 12.8333 10.2814 12.3231 11.3027 11.3027C12.3239 10.2822 12.8341 9.04244 12.8333 7.58333C12.8333 6.125 12.3231 4.88561 11.3027 3.86517C10.2822 2.84472 9.04244 2.33411 7.58333 2.33333C6.125 2.33333 4.88561 2.84394 3.86517 3.86517C2.84472 4.88639 2.33411 6.12578 2.33333 7.58333C2.33333 9.04167 2.84394 10.2814 3.86517 11.3027C4.88639 12.3239 6.12578 12.8341 7.58333 12.8333Z" fill="#F5F5F5"/>
</svg>
