<svg width="34" height="33" viewBox="0 0 34 33" fill="none" xmlns="http://www.w3.org/2000/svg">
<path opacity="0.1" fill-rule="evenodd" clip-rule="evenodd" d="M0.607788 16.7604C0.607788 7.79796 7.87327 0.532471 16.8357 0.532471C25.7981 0.532471 33.0636 7.79796 33.0636 16.7604C33.0636 25.7228 25.7981 32.9883 16.8357 32.9883C7.87327 32.9883 0.607788 25.7228 0.607788 16.7604Z" fill="white"/>
<path fill-rule="evenodd" clip-rule="evenodd" d="M25.4906 16.7484C25.4906 17.3337 25.431 17.9182 25.314 18.4879C25.1998 19.0441 25.0308 19.5902 24.8093 20.1122C24.593 20.625 24.3246 21.1192 24.011 21.58C23.7021 22.0379 23.3462 22.4675 22.9553 22.8591C22.5635 23.2491 22.1325 23.604 21.6748 23.9142C21.2124 24.2256 20.7176 24.4936 20.2045 24.7109C19.6817 24.9312 19.1344 25.1 18.5786 25.214C18.0081 25.3313 17.4215 25.3912 16.8353 25.3912C16.2487 25.3912 15.6621 25.3313 15.0924 25.214C14.5358 25.1 13.9885 24.9312 13.4662 24.7109C12.9531 24.4936 12.4578 24.2256 11.9954 23.9142C11.5377 23.604 11.1067 23.2491 10.7157 22.8591C10.3244 22.4675 9.96853 22.0379 9.65917 21.58C9.34727 21.1192 9.07847 20.625 8.86125 20.1122C8.63977 19.5902 8.47032 19.0441 8.35579 18.4879C8.24 17.9182 8.18082 17.3337 8.18082 16.7484C8.18082 16.1626 8.23996 15.5769 8.35582 15.0084C8.47036 14.4521 8.6398 13.9052 8.86129 13.384C9.0785 12.8709 9.34731 12.3763 9.6592 11.9154C9.96856 11.4571 10.3244 11.0283 10.7158 10.6363C11.1067 10.2463 11.5378 9.89229 11.9955 9.58253C12.4578 9.2698 12.9531 9.00186 13.4662 8.78408C13.9886 8.56332 14.5358 8.39412 15.0925 8.28103C15.6622 8.16456 16.2488 8.10547 16.8354 8.10547C17.4215 8.10547 18.0081 8.16456 18.5786 8.28103C19.1344 8.39415 19.6817 8.56335 20.2045 8.78408C20.7176 9.00182 21.2124 9.2698 21.6748 9.58253C22.1325 9.89229 22.5636 10.2463 22.9553 10.6363C23.3463 11.0283 23.7021 11.4571 24.0111 11.9154C24.3246 12.3763 24.593 12.8709 24.8093 13.384C25.0308 13.9052 25.1998 14.4521 25.314 15.0084C25.431 15.5769 25.4906 16.1626 25.4906 16.7484ZM13.6817 10.0725C11.6205 11.0444 10.0822 12.9409 9.60247 15.2266C9.79732 15.2283 12.8774 15.2671 16.4262 14.3255C15.1469 12.0559 13.7801 10.2038 13.6817 10.0725ZM17.0385 15.4621C13.2328 16.5998 9.58092 16.5179 9.44992 16.5129C9.44779 16.5922 9.44399 16.669 9.44399 16.7484C9.44399 18.6444 10.1603 20.373 11.3378 21.68C11.3352 21.6762 13.3579 18.0929 17.3466 16.8049C17.443 16.7728 17.5411 16.7441 17.6382 16.7163C17.4527 16.2968 17.2503 15.8765 17.0385 15.4621ZM21.7166 11.209C20.4153 10.0632 18.7067 9.36817 16.8353 9.36817C16.2347 9.36817 15.6519 9.44076 15.0937 9.57495C15.2044 9.72352 16.5927 11.5626 17.8568 13.8803C20.6457 12.8363 21.6984 11.236 21.7166 11.209ZM18.1421 17.9393C18.1256 17.9447 18.1092 17.9494 18.0931 17.9553C13.7321 19.4734 12.3079 22.5328 12.2925 22.5662C13.5473 23.5407 15.1212 24.1285 16.8353 24.1285C17.8589 24.1285 18.8339 23.9204 19.721 23.5436C19.6115 22.8988 19.1821 20.6385 18.1421 17.9393ZM20.9656 22.8693C22.6252 21.7509 23.8039 19.9751 24.1327 17.9181C23.9806 17.8692 21.9127 17.2155 19.5269 17.5974C20.4964 20.2578 20.8904 22.4245 20.9656 22.8693ZM18.4257 14.9801C18.5972 15.3321 18.7633 15.6903 18.9167 16.0503C18.9713 16.1795 19.0245 16.3061 19.0765 16.4327C21.6156 16.1136 24.1171 16.6504 24.2241 16.6723C24.2072 14.9227 23.5804 13.3169 22.5433 12.0598C22.5294 12.0795 21.3439 13.79 18.4257 14.9801Z" fill="white"/>
</svg>
