<svg width="34" height="33" viewBox="0 0 34 33" fill="none" xmlns="http://www.w3.org/2000/svg">
<path opacity="0.1" fill-rule="evenodd" clip-rule="evenodd" d="M0.975296 16.7604C0.975296 7.79796 8.24078 0.532471 17.2032 0.532471C26.1656 0.532471 33.4311 7.79796 33.4311 16.7604C33.4311 25.7228 26.1656 32.9883 17.2032 32.9883C8.24078 32.9883 0.975296 25.7228 0.975296 16.7604Z" fill="white"/>
<path fill-rule="evenodd" clip-rule="evenodd" d="M23.9659 11.1815C24.7108 11.3859 25.2973 11.9881 25.4964 12.7528C25.8581 14.1388 25.8581 17.0308 25.8581 17.0308C25.8581 17.0308 25.8581 19.9226 25.4964 21.3087C25.2973 22.0734 24.7108 22.6756 23.9659 22.8801C22.6162 23.2515 17.2032 23.2515 17.2032 23.2515C17.2032 23.2515 11.7903 23.2515 10.4404 22.8801C9.6956 22.6756 9.10904 22.0734 8.90998 21.3087C8.54834 19.9226 8.54834 17.0308 8.54834 17.0308C8.54834 17.0308 8.54834 14.1388 8.90998 12.7528C9.10904 11.9881 9.6956 11.3859 10.4404 11.1815C11.7903 10.8101 17.2032 10.8101 17.2032 10.8101C17.2032 10.8101 22.6162 10.8101 23.9659 11.1815ZM15.5805 14.5965V20.0058L19.9079 17.3013L15.5805 14.5965Z" fill="white"/>
</svg>
